<?xml version="1.0" encoding="utf-8" standalone="no"?>
<!DOCTYPE svg PUBLIC "-//W3C//DTD SVG 1.1//EN"
  "http://www.w3.org/Graphics/SVG/1.1/DTD/svg11.dtd">
<!-- Created with matplotlib (http://matplotlib.org/) -->
<svg height="288pt" version="1.1" viewBox="0 0 432 288" width="432pt" xmlns="http://www.w3.org/2000/svg" xmlns:xlink="http://www.w3.org/1999/xlink">
 <defs>
  <style type="text/css">
*{stroke-linecap:butt;stroke-linejoin:round;stroke-miterlimit:100000;}
  </style>
 </defs>
 <g id="figure_1">
  <g id="patch_1">
   <path d="M 0 288 
L 432 288 
L 432 0 
L 0 0 
z
" style="fill:#ffffff;"/>
  </g>
  <g id="axes_1">
   <g id="patch_2">
    <path d="M 54 252 
L 388.8 252 
L 388.8 28.8 
L 54 28.8 
z
" style="fill:#ffffff;"/>
   </g>
   <g id="patch_3">
    <path clip-path="url(#p4675471457)" d="M 95.013 252 
L 96.687 252 
L 96.687 39.96 
L 95.013 39.96 
z
" style="fill:#006400;stroke:#000000;stroke-linejoin:miter;"/>
   </g>
   <g id="patch_4">
    <path clip-path="url(#p4675471457)" d="M 97.1055 252 
L 98.7795 252 
L 98.7795 213.737143 
L 97.1055 213.737143 
z
" style="fill:#006400;stroke:#000000;stroke-linejoin:miter;"/>
   </g>
   <g id="patch_5">
    <path clip-path="url(#p4675471457)" d="M 99.198 252 
L 100.872 252 
L 100.872 223.302857 
L 99.198 223.302857 
z
" style="fill:#006400;stroke:#000000;stroke-linejoin:miter;"/>
   </g>
   <g id="patch_6">
    <path clip-path="url(#p4675471457)" d="M 101.2905 252 
L 102.9645 252 
L 102.9645 248.811429 
L 101.2905 248.811429 
z
" style="fill:#006400;stroke:#000000;stroke-linejoin:miter;"/>
   </g>
   <g id="patch_7">
    <path clip-path="url(#p4675471457)" d="M 103.383 252 
L 105.057 252 
L 105.057 247.217143 
L 103.383 247.217143 
z
" style="fill:#006400;stroke:#000000;stroke-linejoin:miter;"/>
   </g>
   <g id="patch_8">
    <path clip-path="url(#p4675471457)" d="M 105.4755 252 
L 107.1495 252 
L 107.1495 252 
L 105.4755 252 
z
" style="fill:#006400;stroke:#000000;stroke-linejoin:miter;"/>
   </g>
   <g id="patch_9">
    <path clip-path="url(#p4675471457)" d="M 107.568 252 
L 109.242 252 
L 109.242 252 
L 107.568 252 
z
" style="fill:#006400;stroke:#000000;stroke-linejoin:miter;"/>
   </g>
   <g id="patch_10">
    <path clip-path="url(#p4675471457)" d="M 109.6605 252 
L 111.3345 252 
L 111.3345 248.811429 
L 109.6605 248.811429 
z
" style="fill:#006400;stroke:#000000;stroke-linejoin:miter;"/>
   </g>
   <g id="patch_11">
    <path clip-path="url(#p4675471457)" d="M 111.753 252 
L 113.427 252 
L 113.427 252 
L 111.753 252 
z
" style="fill:#006400;stroke:#000000;stroke-linejoin:miter;"/>
   </g>
   <g id="patch_12">
    <path clip-path="url(#p4675471457)" d="M 113.8455 252 
L 115.5195 252 
L 115.5195 248.811429 
L 113.8455 248.811429 
z
" style="fill:#006400;stroke:#000000;stroke-linejoin:miter;"/>
   </g>
   <g id="patch_13">
    <path clip-path="url(#p4675471457)" d="M 115.938 252 
L 117.612 252 
L 117.612 252 
L 115.938 252 
z
" style="fill:#006400;stroke:#000000;stroke-linejoin:miter;"/>
   </g>
   <g id="patch_14">
    <path clip-path="url(#p4675471457)" d="M 118.0305 252 
L 119.7045 252 
L 119.7045 252 
L 118.0305 252 
z
" style="fill:#006400;stroke:#000000;stroke-linejoin:miter;"/>
   </g>
   <g id="patch_15">
    <path clip-path="url(#p4675471457)" d="M 120.123 252 
L 121.797 252 
L 121.797 252 
L 120.123 252 
z
" style="fill:#006400;stroke:#000000;stroke-linejoin:miter;"/>
   </g>
   <g id="patch_16">
    <path clip-path="url(#p4675471457)" d="M 122.2155 252 
L 123.8895 252 
L 123.8895 248.811429 
L 122.2155 248.811429 
z
" style="fill:#006400;stroke:#000000;stroke-linejoin:miter;"/>
   </g>
   <g id="patch_17">
    <path clip-path="url(#p4675471457)" d="M 124.308 252 
L 125.982 252 
L 125.982 252 
L 124.308 252 
z
" style="fill:#006400;stroke:#000000;stroke-linejoin:miter;"/>
   </g>
   <g id="patch_18">
    <path clip-path="url(#p4675471457)" d="M 126.4005 252 
L 128.0745 252 
L 128.0745 252 
L 126.4005 252 
z
" style="fill:#006400;stroke:#000000;stroke-linejoin:miter;"/>
   </g>
   <g id="patch_19">
    <path clip-path="url(#p4675471457)" d="M 128.493 252 
L 130.167 252 
L 130.167 250.405714 
L 128.493 250.405714 
z
" style="fill:#006400;stroke:#000000;stroke-linejoin:miter;"/>
   </g>
   <g id="patch_20">
    <path clip-path="url(#p4675471457)" d="M 130.5855 252 
L 132.2595 252 
L 132.2595 252 
L 130.5855 252 
z
" style="fill:#006400;stroke:#000000;stroke-linejoin:miter;"/>
   </g>
   <g id="patch_21">
    <path clip-path="url(#p4675471457)" d="M 132.678 252 
L 134.352 252 
L 134.352 252 
L 132.678 252 
z
" style="fill:#006400;stroke:#000000;stroke-linejoin:miter;"/>
   </g>
   <g id="patch_22">
    <path clip-path="url(#p4675471457)" d="M 134.7705 252 
L 136.4445 252 
L 136.4445 252 
L 134.7705 252 
z
" style="fill:#006400;stroke:#000000;stroke-linejoin:miter;"/>
   </g>
   <g id="patch_23">
    <path clip-path="url(#p4675471457)" d="M 136.863 252 
L 138.537 252 
L 138.537 252 
L 136.863 252 
z
" style="fill:#006400;stroke:#000000;stroke-linejoin:miter;"/>
   </g>
   <g id="patch_24">
    <path clip-path="url(#p4675471457)" d="M 138.9555 252 
L 140.6295 252 
L 140.6295 250.405714 
L 138.9555 250.405714 
z
" style="fill:#006400;stroke:#000000;stroke-linejoin:miter;"/>
   </g>
   <g id="patch_25">
    <path clip-path="url(#p4675471457)" d="M 141.048 252 
L 142.722 252 
L 142.722 252 
L 141.048 252 
z
" style="fill:#006400;stroke:#000000;stroke-linejoin:miter;"/>
   </g>
   <g id="patch_26">
    <path clip-path="url(#p4675471457)" d="M 143.1405 252 
L 144.8145 252 
L 144.8145 252 
L 143.1405 252 
z
" style="fill:#006400;stroke:#000000;stroke-linejoin:miter;"/>
   </g>
   <g id="patch_27">
    <path clip-path="url(#p4675471457)" d="M 145.233 252 
L 146.907 252 
L 146.907 252 
L 145.233 252 
z
" style="fill:#006400;stroke:#000000;stroke-linejoin:miter;"/>
   </g>
   <g id="patch_28">
    <path clip-path="url(#p4675471457)" d="M 147.3255 252 
L 148.9995 252 
L 148.9995 252 
L 147.3255 252 
z
" style="fill:#006400;stroke:#000000;stroke-linejoin:miter;"/>
   </g>
   <g id="patch_29">
    <path clip-path="url(#p4675471457)" d="M 149.418 252 
L 151.092 252 
L 151.092 252 
L 149.418 252 
z
" style="fill:#006400;stroke:#000000;stroke-linejoin:miter;"/>
   </g>
   <g id="patch_30">
    <path clip-path="url(#p4675471457)" d="M 151.5105 252 
L 153.1845 252 
L 153.1845 252 
L 151.5105 252 
z
" style="fill:#006400;stroke:#000000;stroke-linejoin:miter;"/>
   </g>
   <g id="patch_31">
    <path clip-path="url(#p4675471457)" d="M 153.603 252 
L 155.277 252 
L 155.277 252 
L 153.603 252 
z
" style="fill:#006400;stroke:#000000;stroke-linejoin:miter;"/>
   </g>
   <g id="patch_32">
    <path clip-path="url(#p4675471457)" d="M 155.6955 252 
L 157.3695 252 
L 157.3695 252 
L 155.6955 252 
z
" style="fill:#006400;stroke:#000000;stroke-linejoin:miter;"/>
   </g>
   <g id="patch_33">
    <path clip-path="url(#p4675471457)" d="M 157.788 252 
L 159.462 252 
L 159.462 252 
L 157.788 252 
z
" style="fill:#006400;stroke:#000000;stroke-linejoin:miter;"/>
   </g>
   <g id="patch_34">
    <path clip-path="url(#p4675471457)" d="M 159.8805 252 
L 161.5545 252 
L 161.5545 250.405714 
L 159.8805 250.405714 
z
" style="fill:#006400;stroke:#000000;stroke-linejoin:miter;"/>
   </g>
   <g id="patch_35">
    <path clip-path="url(#p4675471457)" d="M 161.973 252 
L 163.647 252 
L 163.647 252 
L 161.973 252 
z
" style="fill:#006400;stroke:#000000;stroke-linejoin:miter;"/>
   </g>
   <g id="patch_36">
    <path clip-path="url(#p4675471457)" d="M 164.0655 252 
L 165.7395 252 
L 165.7395 252 
L 164.0655 252 
z
" style="fill:#006400;stroke:#000000;stroke-linejoin:miter;"/>
   </g>
   <g id="patch_37">
    <path clip-path="url(#p4675471457)" d="M 166.158 252 
L 167.832 252 
L 167.832 252 
L 166.158 252 
z
" style="fill:#006400;stroke:#000000;stroke-linejoin:miter;"/>
   </g>
   <g id="patch_38">
    <path clip-path="url(#p4675471457)" d="M 168.2505 252 
L 169.9245 252 
L 169.9245 252 
L 168.2505 252 
z
" style="fill:#006400;stroke:#000000;stroke-linejoin:miter;"/>
   </g>
   <g id="patch_39">
    <path clip-path="url(#p4675471457)" d="M 170.343 252 
L 172.017 252 
L 172.017 252 
L 170.343 252 
z
" style="fill:#006400;stroke:#000000;stroke-linejoin:miter;"/>
   </g>
   <g id="patch_40">
    <path clip-path="url(#p4675471457)" d="M 172.4355 252 
L 174.1095 252 
L 174.1095 252 
L 172.4355 252 
z
" style="fill:#006400;stroke:#000000;stroke-linejoin:miter;"/>
   </g>
   <g id="patch_41">
    <path clip-path="url(#p4675471457)" d="M 174.528 252 
L 176.202 252 
L 176.202 252 
L 174.528 252 
z
" style="fill:#006400;stroke:#000000;stroke-linejoin:miter;"/>
   </g>
   <g id="patch_42">
    <path clip-path="url(#p4675471457)" d="M 176.6205 252 
L 178.2945 252 
L 178.2945 252 
L 176.6205 252 
z
" style="fill:#006400;stroke:#000000;stroke-linejoin:miter;"/>
   </g>
   <g id="patch_43">
    <path clip-path="url(#p4675471457)" d="M 178.713 252 
L 180.387 252 
L 180.387 252 
L 178.713 252 
z
" style="fill:#006400;stroke:#000000;stroke-linejoin:miter;"/>
   </g>
   <g id="patch_44">
    <path clip-path="url(#p4675471457)" d="M 180.8055 252 
L 182.4795 252 
L 182.4795 252 
L 180.8055 252 
z
" style="fill:#006400;stroke:#000000;stroke-linejoin:miter;"/>
   </g>
   <g id="patch_45">
    <path clip-path="url(#p4675471457)" d="M 182.898 252 
L 184.572 252 
L 184.572 250.405714 
L 182.898 250.405714 
z
" style="fill:#006400;stroke:#000000;stroke-linejoin:miter;"/>
   </g>
   <g id="patch_46">
    <path clip-path="url(#p4675471457)" d="M 184.9905 252 
L 186.6645 252 
L 186.6645 252 
L 184.9905 252 
z
" style="fill:#006400;stroke:#000000;stroke-linejoin:miter;"/>
   </g>
   <g id="patch_47">
    <path clip-path="url(#p4675471457)" d="M 187.083 252 
L 188.757 252 
L 188.757 252 
L 187.083 252 
z
" style="fill:#006400;stroke:#000000;stroke-linejoin:miter;"/>
   </g>
   <g id="patch_48">
    <path clip-path="url(#p4675471457)" d="M 189.1755 252 
L 190.8495 252 
L 190.8495 252 
L 189.1755 252 
z
" style="fill:#006400;stroke:#000000;stroke-linejoin:miter;"/>
   </g>
   <g id="patch_49">
    <path clip-path="url(#p4675471457)" d="M 191.268 252 
L 192.942 252 
L 192.942 252 
L 191.268 252 
z
" style="fill:#006400;stroke:#000000;stroke-linejoin:miter;"/>
   </g>
   <g id="patch_50">
    <path clip-path="url(#p4675471457)" d="M 193.3605 252 
L 195.0345 252 
L 195.0345 252 
L 193.3605 252 
z
" style="fill:#006400;stroke:#000000;stroke-linejoin:miter;"/>
   </g>
   <g id="patch_51">
    <path clip-path="url(#p4675471457)" d="M 195.453 252 
L 197.127 252 
L 197.127 250.405714 
L 195.453 250.405714 
z
" style="fill:#006400;stroke:#000000;stroke-linejoin:miter;"/>
   </g>
   <g id="patch_52">
    <path clip-path="url(#p4675471457)" d="M 197.5455 252 
L 199.2195 252 
L 199.2195 252 
L 197.5455 252 
z
" style="fill:#006400;stroke:#000000;stroke-linejoin:miter;"/>
   </g>
   <g id="patch_53">
    <path clip-path="url(#p4675471457)" d="M 199.638 252 
L 201.312 252 
L 201.312 252 
L 199.638 252 
z
" style="fill:#006400;stroke:#000000;stroke-linejoin:miter;"/>
   </g>
   <g id="patch_54">
    <path clip-path="url(#p4675471457)" d="M 201.7305 252 
L 203.4045 252 
L 203.4045 252 
L 201.7305 252 
z
" style="fill:#006400;stroke:#000000;stroke-linejoin:miter;"/>
   </g>
   <g id="patch_55">
    <path clip-path="url(#p4675471457)" d="M 203.823 252 
L 205.497 252 
L 205.497 252 
L 203.823 252 
z
" style="fill:#006400;stroke:#000000;stroke-linejoin:miter;"/>
   </g>
   <g id="patch_56">
    <path clip-path="url(#p4675471457)" d="M 205.9155 252 
L 207.5895 252 
L 207.5895 252 
L 205.9155 252 
z
" style="fill:#006400;stroke:#000000;stroke-linejoin:miter;"/>
   </g>
   <g id="patch_57">
    <path clip-path="url(#p4675471457)" d="M 208.008 252 
L 209.682 252 
L 209.682 252 
L 208.008 252 
z
" style="fill:#006400;stroke:#000000;stroke-linejoin:miter;"/>
   </g>
   <g id="patch_58">
    <path clip-path="url(#p4675471457)" d="M 210.1005 252 
L 211.7745 252 
L 211.7745 252 
L 210.1005 252 
z
" style="fill:#006400;stroke:#000000;stroke-linejoin:miter;"/>
   </g>
   <g id="patch_59">
    <path clip-path="url(#p4675471457)" d="M 212.193 252 
L 213.867 252 
L 213.867 252 
L 212.193 252 
z
" style="fill:#006400;stroke:#000000;stroke-linejoin:miter;"/>
   </g>
   <g id="patch_60">
    <path clip-path="url(#p4675471457)" d="M 214.2855 252 
L 215.9595 252 
L 215.9595 252 
L 214.2855 252 
z
" style="fill:#006400;stroke:#000000;stroke-linejoin:miter;"/>
   </g>
   <g id="patch_61">
    <path clip-path="url(#p4675471457)" d="M 216.378 252 
L 218.052 252 
L 218.052 252 
L 216.378 252 
z
" style="fill:#006400;stroke:#000000;stroke-linejoin:miter;"/>
   </g>
   <g id="patch_62">
    <path clip-path="url(#p4675471457)" d="M 218.4705 252 
L 220.1445 252 
L 220.1445 252 
L 218.4705 252 
z
" style="fill:#006400;stroke:#000000;stroke-linejoin:miter;"/>
   </g>
   <g id="patch_63">
    <path clip-path="url(#p4675471457)" d="M 220.563 252 
L 222.237 252 
L 222.237 252 
L 220.563 252 
z
" style="fill:#006400;stroke:#000000;stroke-linejoin:miter;"/>
   </g>
   <g id="patch_64">
    <path clip-path="url(#p4675471457)" d="M 222.6555 252 
L 224.3295 252 
L 224.3295 252 
L 222.6555 252 
z
" style="fill:#006400;stroke:#000000;stroke-linejoin:miter;"/>
   </g>
   <g id="patch_65">
    <path clip-path="url(#p4675471457)" d="M 224.748 252 
L 226.422 252 
L 226.422 252 
L 224.748 252 
z
" style="fill:#006400;stroke:#000000;stroke-linejoin:miter;"/>
   </g>
   <g id="patch_66">
    <path clip-path="url(#p4675471457)" d="M 226.8405 252 
L 228.5145 252 
L 228.5145 252 
L 226.8405 252 
z
" style="fill:#006400;stroke:#000000;stroke-linejoin:miter;"/>
   </g>
   <g id="patch_67">
    <path clip-path="url(#p4675471457)" d="M 228.933 252 
L 230.607 252 
L 230.607 252 
L 228.933 252 
z
" style="fill:#006400;stroke:#000000;stroke-linejoin:miter;"/>
   </g>
   <g id="patch_68">
    <path clip-path="url(#p4675471457)" d="M 231.0255 252 
L 232.6995 252 
L 232.6995 252 
L 231.0255 252 
z
" style="fill:#006400;stroke:#000000;stroke-linejoin:miter;"/>
   </g>
   <g id="patch_69">
    <path clip-path="url(#p4675471457)" d="M 233.118 252 
L 234.792 252 
L 234.792 252 
L 233.118 252 
z
" style="fill:#006400;stroke:#000000;stroke-linejoin:miter;"/>
   </g>
   <g id="patch_70">
    <path clip-path="url(#p4675471457)" d="M 235.2105 252 
L 236.8845 252 
L 236.8845 252 
L 235.2105 252 
z
" style="fill:#006400;stroke:#000000;stroke-linejoin:miter;"/>
   </g>
   <g id="patch_71">
    <path clip-path="url(#p4675471457)" d="M 237.303 252 
L 238.977 252 
L 238.977 252 
L 237.303 252 
z
" style="fill:#006400;stroke:#000000;stroke-linejoin:miter;"/>
   </g>
   <g id="patch_72">
    <path clip-path="url(#p4675471457)" d="M 239.3955 252 
L 241.0695 252 
L 241.0695 252 
L 239.3955 252 
z
" style="fill:#006400;stroke:#000000;stroke-linejoin:miter;"/>
   </g>
   <g id="patch_73">
    <path clip-path="url(#p4675471457)" d="M 241.488 252 
L 243.162 252 
L 243.162 252 
L 241.488 252 
z
" style="fill:#006400;stroke:#000000;stroke-linejoin:miter;"/>
   </g>
   <g id="patch_74">
    <path clip-path="url(#p4675471457)" d="M 243.5805 252 
L 245.2545 252 
L 245.2545 252 
L 243.5805 252 
z
" style="fill:#006400;stroke:#000000;stroke-linejoin:miter;"/>
   </g>
   <g id="patch_75">
    <path clip-path="url(#p4675471457)" d="M 245.673 252 
L 247.347 252 
L 247.347 252 
L 245.673 252 
z
" style="fill:#006400;stroke:#000000;stroke-linejoin:miter;"/>
   </g>
   <g id="patch_76">
    <path clip-path="url(#p4675471457)" d="M 247.7655 252 
L 249.4395 252 
L 249.4395 252 
L 247.7655 252 
z
" style="fill:#006400;stroke:#000000;stroke-linejoin:miter;"/>
   </g>
   <g id="patch_77">
    <path clip-path="url(#p4675471457)" d="M 249.858 252 
L 251.532 252 
L 251.532 252 
L 249.858 252 
z
" style="fill:#006400;stroke:#000000;stroke-linejoin:miter;"/>
   </g>
   <g id="patch_78">
    <path clip-path="url(#p4675471457)" d="M 251.9505 252 
L 253.6245 252 
L 253.6245 252 
L 251.9505 252 
z
" style="fill:#006400;stroke:#000000;stroke-linejoin:miter;"/>
   </g>
   <g id="patch_79">
    <path clip-path="url(#p4675471457)" d="M 254.043 252 
L 255.717 252 
L 255.717 252 
L 254.043 252 
z
" style="fill:#006400;stroke:#000000;stroke-linejoin:miter;"/>
   </g>
   <g id="patch_80">
    <path clip-path="url(#p4675471457)" d="M 256.1355 252 
L 257.8095 252 
L 257.8095 252 
L 256.1355 252 
z
" style="fill:#006400;stroke:#000000;stroke-linejoin:miter;"/>
   </g>
   <g id="patch_81">
    <path clip-path="url(#p4675471457)" d="M 258.228 252 
L 259.902 252 
L 259.902 252 
L 258.228 252 
z
" style="fill:#006400;stroke:#000000;stroke-linejoin:miter;"/>
   </g>
   <g id="patch_82">
    <path clip-path="url(#p4675471457)" d="M 260.3205 252 
L 261.9945 252 
L 261.9945 252 
L 260.3205 252 
z
" style="fill:#006400;stroke:#000000;stroke-linejoin:miter;"/>
   </g>
   <g id="patch_83">
    <path clip-path="url(#p4675471457)" d="M 262.413 252 
L 264.087 252 
L 264.087 252 
L 262.413 252 
z
" style="fill:#006400;stroke:#000000;stroke-linejoin:miter;"/>
   </g>
   <g id="patch_84">
    <path clip-path="url(#p4675471457)" d="M 264.5055 252 
L 266.1795 252 
L 266.1795 252 
L 264.5055 252 
z
" style="fill:#006400;stroke:#000000;stroke-linejoin:miter;"/>
   </g>
   <g id="patch_85">
    <path clip-path="url(#p4675471457)" d="M 266.598 252 
L 268.272 252 
L 268.272 252 
L 266.598 252 
z
" style="fill:#006400;stroke:#000000;stroke-linejoin:miter;"/>
   </g>
   <g id="patch_86">
    <path clip-path="url(#p4675471457)" d="M 268.6905 252 
L 270.3645 252 
L 270.3645 252 
L 268.6905 252 
z
" style="fill:#006400;stroke:#000000;stroke-linejoin:miter;"/>
   </g>
   <g id="patch_87">
    <path clip-path="url(#p4675471457)" d="M 270.783 252 
L 272.457 252 
L 272.457 252 
L 270.783 252 
z
" style="fill:#006400;stroke:#000000;stroke-linejoin:miter;"/>
   </g>
   <g id="patch_88">
    <path clip-path="url(#p4675471457)" d="M 272.8755 252 
L 274.5495 252 
L 274.5495 252 
L 272.8755 252 
z
" style="fill:#006400;stroke:#000000;stroke-linejoin:miter;"/>
   </g>
   <g id="patch_89">
    <path clip-path="url(#p4675471457)" d="M 274.968 252 
L 276.642 252 
L 276.642 252 
L 274.968 252 
z
" style="fill:#006400;stroke:#000000;stroke-linejoin:miter;"/>
   </g>
   <g id="patch_90">
    <path clip-path="url(#p4675471457)" d="M 277.0605 252 
L 278.7345 252 
L 278.7345 252 
L 277.0605 252 
z
" style="fill:#006400;stroke:#000000;stroke-linejoin:miter;"/>
   </g>
   <g id="patch_91">
    <path clip-path="url(#p4675471457)" d="M 279.153 252 
L 280.827 252 
L 280.827 252 
L 279.153 252 
z
" style="fill:#006400;stroke:#000000;stroke-linejoin:miter;"/>
   </g>
   <g id="patch_92">
    <path clip-path="url(#p4675471457)" d="M 281.2455 252 
L 282.9195 252 
L 282.9195 252 
L 281.2455 252 
z
" style="fill:#006400;stroke:#000000;stroke-linejoin:miter;"/>
   </g>
   <g id="patch_93">
    <path clip-path="url(#p4675471457)" d="M 283.338 252 
L 285.012 252 
L 285.012 252 
L 283.338 252 
z
" style="fill:#006400;stroke:#000000;stroke-linejoin:miter;"/>
   </g>
   <g id="patch_94">
    <path clip-path="url(#p4675471457)" d="M 285.4305 252 
L 287.1045 252 
L 287.1045 252 
L 285.4305 252 
z
" style="fill:#006400;stroke:#000000;stroke-linejoin:miter;"/>
   </g>
   <g id="patch_95">
    <path clip-path="url(#p4675471457)" d="M 287.523 252 
L 289.197 252 
L 289.197 252 
L 287.523 252 
z
" style="fill:#006400;stroke:#000000;stroke-linejoin:miter;"/>
   </g>
   <g id="patch_96">
    <path clip-path="url(#p4675471457)" d="M 289.6155 252 
L 291.2895 252 
L 291.2895 252 
L 289.6155 252 
z
" style="fill:#006400;stroke:#000000;stroke-linejoin:miter;"/>
   </g>
   <g id="patch_97">
    <path clip-path="url(#p4675471457)" d="M 291.708 252 
L 293.382 252 
L 293.382 252 
L 291.708 252 
z
" style="fill:#006400;stroke:#000000;stroke-linejoin:miter;"/>
   </g>
   <g id="patch_98">
    <path clip-path="url(#p4675471457)" d="M 293.8005 252 
L 295.4745 252 
L 295.4745 252 
L 293.8005 252 
z
" style="fill:#006400;stroke:#000000;stroke-linejoin:miter;"/>
   </g>
   <g id="patch_99">
    <path clip-path="url(#p4675471457)" d="M 295.893 252 
L 297.567 252 
L 297.567 252 
L 295.893 252 
z
" style="fill:#006400;stroke:#000000;stroke-linejoin:miter;"/>
   </g>
   <g id="patch_100">
    <path clip-path="url(#p4675471457)" d="M 297.9855 252 
L 299.6595 252 
L 299.6595 252 
L 297.9855 252 
z
" style="fill:#006400;stroke:#000000;stroke-linejoin:miter;"/>
   </g>
   <g id="patch_101">
    <path clip-path="url(#p4675471457)" d="M 300.078 252 
L 301.752 252 
L 301.752 252 
L 300.078 252 
z
" style="fill:#006400;stroke:#000000;stroke-linejoin:miter;"/>
   </g>
   <g id="patch_102">
    <path clip-path="url(#p4675471457)" d="M 302.1705 252 
L 303.8445 252 
L 303.8445 252 
L 302.1705 252 
z
" style="fill:#006400;stroke:#000000;stroke-linejoin:miter;"/>
   </g>
   <g id="patch_103">
    <path clip-path="url(#p4675471457)" d="M 304.263 252 
L 305.937 252 
L 305.937 252 
L 304.263 252 
z
" style="fill:#006400;stroke:#000000;stroke-linejoin:miter;"/>
   </g>
   <g id="patch_104">
    <path clip-path="url(#p4675471457)" d="M 306.3555 252 
L 308.0295 252 
L 308.0295 252 
L 306.3555 252 
z
" style="fill:#006400;stroke:#000000;stroke-linejoin:miter;"/>
   </g>
   <g id="patch_105">
    <path clip-path="url(#p4675471457)" d="M 308.448 252 
L 310.122 252 
L 310.122 252 
L 308.448 252 
z
" style="fill:#006400;stroke:#000000;stroke-linejoin:miter;"/>
   </g>
   <g id="patch_106">
    <path clip-path="url(#p4675471457)" d="M 310.5405 252 
L 312.2145 252 
L 312.2145 252 
L 310.5405 252 
z
" style="fill:#006400;stroke:#000000;stroke-linejoin:miter;"/>
   </g>
   <g id="patch_107">
    <path clip-path="url(#p4675471457)" d="M 312.633 252 
L 314.307 252 
L 314.307 252 
L 312.633 252 
z
" style="fill:#006400;stroke:#000000;stroke-linejoin:miter;"/>
   </g>
   <g id="patch_108">
    <path clip-path="url(#p4675471457)" d="M 314.7255 252 
L 316.3995 252 
L 316.3995 252 
L 314.7255 252 
z
" style="fill:#006400;stroke:#000000;stroke-linejoin:miter;"/>
   </g>
   <g id="patch_109">
    <path clip-path="url(#p4675471457)" d="M 316.818 252 
L 318.492 252 
L 318.492 252 
L 316.818 252 
z
" style="fill:#006400;stroke:#000000;stroke-linejoin:miter;"/>
   </g>
   <g id="patch_110">
    <path clip-path="url(#p4675471457)" d="M 318.9105 252 
L 320.5845 252 
L 320.5845 252 
L 318.9105 252 
z
" style="fill:#006400;stroke:#000000;stroke-linejoin:miter;"/>
   </g>
   <g id="patch_111">
    <path clip-path="url(#p4675471457)" d="M 321.003 252 
L 322.677 252 
L 322.677 252 
L 321.003 252 
z
" style="fill:#006400;stroke:#000000;stroke-linejoin:miter;"/>
   </g>
   <g id="patch_112">
    <path clip-path="url(#p4675471457)" d="M 323.0955 252 
L 324.7695 252 
L 324.7695 252 
L 323.0955 252 
z
" style="fill:#006400;stroke:#000000;stroke-linejoin:miter;"/>
   </g>
   <g id="patch_113">
    <path clip-path="url(#p4675471457)" d="M 325.188 252 
L 326.862 252 
L 326.862 252 
L 325.188 252 
z
" style="fill:#006400;stroke:#000000;stroke-linejoin:miter;"/>
   </g>
   <g id="patch_114">
    <path clip-path="url(#p4675471457)" d="M 327.2805 252 
L 328.9545 252 
L 328.9545 252 
L 327.2805 252 
z
" style="fill:#006400;stroke:#000000;stroke-linejoin:miter;"/>
   </g>
   <g id="patch_115">
    <path clip-path="url(#p4675471457)" d="M 329.373 252 
L 331.047 252 
L 331.047 252 
L 329.373 252 
z
" style="fill:#006400;stroke:#000000;stroke-linejoin:miter;"/>
   </g>
   <g id="patch_116">
    <path clip-path="url(#p4675471457)" d="M 331.4655 252 
L 333.1395 252 
L 333.1395 252 
L 331.4655 252 
z
" style="fill:#006400;stroke:#000000;stroke-linejoin:miter;"/>
   </g>
   <g id="patch_117">
    <path clip-path="url(#p4675471457)" d="M 333.558 252 
L 335.232 252 
L 335.232 252 
L 333.558 252 
z
" style="fill:#006400;stroke:#000000;stroke-linejoin:miter;"/>
   </g>
   <g id="patch_118">
    <path clip-path="url(#p4675471457)" d="M 335.6505 252 
L 337.3245 252 
L 337.3245 252 
L 335.6505 252 
z
" style="fill:#006400;stroke:#000000;stroke-linejoin:miter;"/>
   </g>
   <g id="patch_119">
    <path clip-path="url(#p4675471457)" d="M 337.743 252 
L 339.417 252 
L 339.417 252 
L 337.743 252 
z
" style="fill:#006400;stroke:#000000;stroke-linejoin:miter;"/>
   </g>
   <g id="patch_120">
    <path clip-path="url(#p4675471457)" d="M 339.8355 252 
L 341.5095 252 
L 341.5095 252 
L 339.8355 252 
z
" style="fill:#006400;stroke:#000000;stroke-linejoin:miter;"/>
   </g>
   <g id="patch_121">
    <path clip-path="url(#p4675471457)" d="M 341.928 252 
L 343.602 252 
L 343.602 252 
L 341.928 252 
z
" style="fill:#006400;stroke:#000000;stroke-linejoin:miter;"/>
   </g>
   <g id="patch_122">
    <path clip-path="url(#p4675471457)" d="M 344.0205 252 
L 345.6945 252 
L 345.6945 252 
L 344.0205 252 
z
" style="fill:#006400;stroke:#000000;stroke-linejoin:miter;"/>
   </g>
   <g id="patch_123">
    <path clip-path="url(#p4675471457)" d="M 346.113 252 
L 347.787 252 
L 347.787 252 
L 346.113 252 
z
" style="fill:#006400;stroke:#000000;stroke-linejoin:miter;"/>
   </g>
   <g id="patch_124">
    <path clip-path="url(#p4675471457)" d="M 348.2055 252 
L 349.8795 252 
L 349.8795 252 
L 348.2055 252 
z
" style="fill:#006400;stroke:#000000;stroke-linejoin:miter;"/>
   </g>
   <g id="patch_125">
    <path clip-path="url(#p4675471457)" d="M 350.298 252 
L 351.972 252 
L 351.972 252 
L 350.298 252 
z
" style="fill:#006400;stroke:#000000;stroke-linejoin:miter;"/>
   </g>
   <g id="patch_126">
    <path clip-path="url(#p4675471457)" d="M 352.3905 252 
L 354.0645 252 
L 354.0645 252 
L 352.3905 252 
z
" style="fill:#006400;stroke:#000000;stroke-linejoin:miter;"/>
   </g>
   <g id="patch_127">
    <path clip-path="url(#p4675471457)" d="M 354.483 252 
L 356.157 252 
L 356.157 252 
L 354.483 252 
z
" style="fill:#006400;stroke:#000000;stroke-linejoin:miter;"/>
   </g>
   <g id="patch_128">
    <path clip-path="url(#p4675471457)" d="M 356.5755 252 
L 358.2495 252 
L 358.2495 252 
L 356.5755 252 
z
" style="fill:#006400;stroke:#000000;stroke-linejoin:miter;"/>
   </g>
   <g id="patch_129">
    <path clip-path="url(#p4675471457)" d="M 358.668 252 
L 360.342 252 
L 360.342 252 
L 358.668 252 
z
" style="fill:#006400;stroke:#000000;stroke-linejoin:miter;"/>
   </g>
   <g id="patch_130">
    <path clip-path="url(#p4675471457)" d="M 360.7605 252 
L 362.4345 252 
L 362.4345 252 
L 360.7605 252 
z
" style="fill:#006400;stroke:#000000;stroke-linejoin:miter;"/>
   </g>
   <g id="patch_131">
    <path clip-path="url(#p4675471457)" d="M 362.853 252 
L 364.527 252 
L 364.527 252 
L 362.853 252 
z
" style="fill:#006400;stroke:#000000;stroke-linejoin:miter;"/>
   </g>
   <g id="patch_132">
    <path clip-path="url(#p4675471457)" d="M 364.9455 252 
L 366.6195 252 
L 366.6195 252 
L 364.9455 252 
z
" style="fill:#006400;stroke:#000000;stroke-linejoin:miter;"/>
   </g>
   <g id="patch_133">
    <path clip-path="url(#p4675471457)" d="M 367.038 252 
L 368.712 252 
L 368.712 250.405714 
L 367.038 250.405714 
z
" style="fill:#006400;stroke:#000000;stroke-linejoin:miter;"/>
   </g>
   <g id="patch_134">
    <path d="M 54 252 
L 388.8 252 
" style="fill:none;stroke:#000000;stroke-linecap:square;stroke-linejoin:miter;"/>
   </g>
   <g id="patch_135">
    <path d="M 54 28.8 
L 388.8 28.8 
" style="fill:none;stroke:#000000;stroke-linecap:square;stroke-linejoin:miter;"/>
   </g>
   <g id="patch_136">
    <path d="M 388.8 252 
L 388.8 28.8 
" style="fill:none;stroke:#000000;stroke-linecap:square;stroke-linejoin:miter;"/>
   </g>
   <g id="patch_137">
    <path d="M 54 252 
L 54 28.8 
" style="fill:none;stroke:#000000;stroke-linecap:square;stroke-linejoin:miter;"/>
   </g>
   <g id="matplotlib.axis_1">
    <g id="xtick_1">
     <g id="line2d_1">
      <defs>
       <path d="M 0 0 
L 0 -4 
" id="ma23d80fd33" style="stroke:#000000;stroke-width:0.5;"/>
      </defs>
      <g>
       <use style="stroke:#000000;stroke-width:0.5;" x="54.0" xlink:href="#ma23d80fd33" y="252.0"/>
      </g>
     </g>
     <g id="line2d_2">
      <defs>
       <path d="M 0 0 
L 0 4 
" id="m068326265e" style="stroke:#000000;stroke-width:0.5;"/>
      </defs>
      <g>
       <use style="stroke:#000000;stroke-width:0.5;" x="54.0" xlink:href="#m068326265e" y="28.8"/>
      </g>
     </g>
     <g id="text_1">
      <!-- −20 -->
      <defs>
       <path d="M 19.1875 8.296875 
L 53.609375 8.296875 
L 53.609375 0 
L 7.328125 0 
L 7.328125 8.296875 
Q 12.9375 14.109375 22.625 23.890625 
Q 32.328125 33.6875 34.8125 36.53125 
Q 39.546875 41.84375 41.421875 45.53125 
Q 43.3125 49.21875 43.3125 52.78125 
Q 43.3125 58.59375 39.234375 62.25 
Q 35.15625 65.921875 28.609375 65.921875 
Q 23.96875 65.921875 18.8125 64.3125 
Q 13.671875 62.703125 7.8125 59.421875 
L 7.8125 69.390625 
Q 13.765625 71.78125 18.9375 73 
Q 24.125 74.21875 28.421875 74.21875 
Q 39.75 74.21875 46.484375 68.546875 
Q 53.21875 62.890625 53.21875 53.421875 
Q 53.21875 48.921875 51.53125 44.890625 
Q 49.859375 40.875 45.40625 35.40625 
Q 44.1875 33.984375 37.640625 27.21875 
Q 31.109375 20.453125 19.1875 8.296875 
" id="BitstreamVeraSans-Roman-32"/>
       <path d="M 31.78125 66.40625 
Q 24.171875 66.40625 20.328125 58.90625 
Q 16.5 51.421875 16.5 36.375 
Q 16.5 21.390625 20.328125 13.890625 
Q 24.171875 6.390625 31.78125 6.390625 
Q 39.453125 6.390625 43.28125 13.890625 
Q 47.125 21.390625 47.125 36.375 
Q 47.125 51.421875 43.28125 58.90625 
Q 39.453125 66.40625 31.78125 66.40625 
M 31.78125 74.21875 
Q 44.046875 74.21875 50.515625 64.515625 
Q 56.984375 54.828125 56.984375 36.375 
Q 56.984375 17.96875 50.515625 8.265625 
Q 44.046875 -1.421875 31.78125 -1.421875 
Q 19.53125 -1.421875 13.0625 8.265625 
Q 6.59375 17.96875 6.59375 36.375 
Q 6.59375 54.828125 13.0625 64.515625 
Q 19.53125 74.21875 31.78125 74.21875 
" id="BitstreamVeraSans-Roman-30"/>
       <path d="M 10.59375 35.5 
L 73.1875 35.5 
L 73.1875 27.203125 
L 10.59375 27.203125 
z
" id="BitstreamVeraSans-Roman-2212"/>
      </defs>
      <g transform="translate(43.44765625 263.5984375)scale(0.1 -0.1)">
       <use xlink:href="#BitstreamVeraSans-Roman-2212"/>
       <use x="83.7890625" xlink:href="#BitstreamVeraSans-Roman-32"/>
       <use x="147.412109375" xlink:href="#BitstreamVeraSans-Roman-30"/>
      </g>
     </g>
    </g>
    <g id="xtick_2">
     <g id="line2d_3">
      <g>
       <use style="stroke:#000000;stroke-width:0.5;" x="95.85" xlink:href="#ma23d80fd33" y="252.0"/>
      </g>
     </g>
     <g id="line2d_4">
      <g>
       <use style="stroke:#000000;stroke-width:0.5;" x="95.85" xlink:href="#m068326265e" y="28.8"/>
      </g>
     </g>
     <g id="text_2">
      <!-- 0 -->
      <g transform="translate(92.66875 263.5984375)scale(0.1 -0.1)">
       <use xlink:href="#BitstreamVeraSans-Roman-30"/>
      </g>
     </g>
    </g>
    <g id="xtick_3">
     <g id="line2d_5">
      <g>
       <use style="stroke:#000000;stroke-width:0.5;" x="137.7" xlink:href="#ma23d80fd33" y="252.0"/>
      </g>
     </g>
     <g id="line2d_6">
      <g>
       <use style="stroke:#000000;stroke-width:0.5;" x="137.7" xlink:href="#m068326265e" y="28.8"/>
      </g>
     </g>
     <g id="text_3">
      <!-- 20 -->
      <g transform="translate(131.3375 263.5984375)scale(0.1 -0.1)">
       <use xlink:href="#BitstreamVeraSans-Roman-32"/>
       <use x="63.623046875" xlink:href="#BitstreamVeraSans-Roman-30"/>
      </g>
     </g>
    </g>
    <g id="xtick_4">
     <g id="line2d_7">
      <g>
       <use style="stroke:#000000;stroke-width:0.5;" x="179.55" xlink:href="#ma23d80fd33" y="252.0"/>
      </g>
     </g>
     <g id="line2d_8">
      <g>
       <use style="stroke:#000000;stroke-width:0.5;" x="179.55" xlink:href="#m068326265e" y="28.8"/>
      </g>
     </g>
     <g id="text_4">
      <!-- 40 -->
      <defs>
       <path d="M 37.796875 64.3125 
L 12.890625 25.390625 
L 37.796875 25.390625 
z
M 35.203125 72.90625 
L 47.609375 72.90625 
L 47.609375 25.390625 
L 58.015625 25.390625 
L 58.015625 17.1875 
L 47.609375 17.1875 
L 47.609375 0 
L 37.796875 0 
L 37.796875 17.1875 
L 4.890625 17.1875 
L 4.890625 26.703125 
z
" id="BitstreamVeraSans-Roman-34"/>
      </defs>
      <g transform="translate(173.1875 263.5984375)scale(0.1 -0.1)">
       <use xlink:href="#BitstreamVeraSans-Roman-34"/>
       <use x="63.623046875" xlink:href="#BitstreamVeraSans-Roman-30"/>
      </g>
     </g>
    </g>
    <g id="xtick_5">
     <g id="line2d_9">
      <g>
       <use style="stroke:#000000;stroke-width:0.5;" x="221.4" xlink:href="#ma23d80fd33" y="252.0"/>
      </g>
     </g>
     <g id="line2d_10">
      <g>
       <use style="stroke:#000000;stroke-width:0.5;" x="221.4" xlink:href="#m068326265e" y="28.8"/>
      </g>
     </g>
     <g id="text_5">
      <!-- 60 -->
      <defs>
       <path d="M 33.015625 40.375 
Q 26.375 40.375 22.484375 35.828125 
Q 18.609375 31.296875 18.609375 23.390625 
Q 18.609375 15.53125 22.484375 10.953125 
Q 26.375 6.390625 33.015625 6.390625 
Q 39.65625 6.390625 43.53125 10.953125 
Q 47.40625 15.53125 47.40625 23.390625 
Q 47.40625 31.296875 43.53125 35.828125 
Q 39.65625 40.375 33.015625 40.375 
M 52.59375 71.296875 
L 52.59375 62.3125 
Q 48.875 64.0625 45.09375 64.984375 
Q 41.3125 65.921875 37.59375 65.921875 
Q 27.828125 65.921875 22.671875 59.328125 
Q 17.53125 52.734375 16.796875 39.40625 
Q 19.671875 43.65625 24.015625 45.921875 
Q 28.375 48.1875 33.59375 48.1875 
Q 44.578125 48.1875 50.953125 41.515625 
Q 57.328125 34.859375 57.328125 23.390625 
Q 57.328125 12.15625 50.6875 5.359375 
Q 44.046875 -1.421875 33.015625 -1.421875 
Q 20.359375 -1.421875 13.671875 8.265625 
Q 6.984375 17.96875 6.984375 36.375 
Q 6.984375 53.65625 15.1875 63.9375 
Q 23.390625 74.21875 37.203125 74.21875 
Q 40.921875 74.21875 44.703125 73.484375 
Q 48.484375 72.75 52.59375 71.296875 
" id="BitstreamVeraSans-Roman-36"/>
      </defs>
      <g transform="translate(215.0375 263.5984375)scale(0.1 -0.1)">
       <use xlink:href="#BitstreamVeraSans-Roman-36"/>
       <use x="63.623046875" xlink:href="#BitstreamVeraSans-Roman-30"/>
      </g>
     </g>
    </g>
    <g id="xtick_6">
     <g id="line2d_11">
      <g>
       <use style="stroke:#000000;stroke-width:0.5;" x="263.25" xlink:href="#ma23d80fd33" y="252.0"/>
      </g>
     </g>
     <g id="line2d_12">
      <g>
       <use style="stroke:#000000;stroke-width:0.5;" x="263.25" xlink:href="#m068326265e" y="28.8"/>
      </g>
     </g>
     <g id="text_6">
      <!-- 80 -->
      <defs>
       <path d="M 31.78125 34.625 
Q 24.75 34.625 20.71875 30.859375 
Q 16.703125 27.09375 16.703125 20.515625 
Q 16.703125 13.921875 20.71875 10.15625 
Q 24.75 6.390625 31.78125 6.390625 
Q 38.8125 6.390625 42.859375 10.171875 
Q 46.921875 13.96875 46.921875 20.515625 
Q 46.921875 27.09375 42.890625 30.859375 
Q 38.875 34.625 31.78125 34.625 
M 21.921875 38.8125 
Q 15.578125 40.375 12.03125 44.71875 
Q 8.5 49.078125 8.5 55.328125 
Q 8.5 64.0625 14.71875 69.140625 
Q 20.953125 74.21875 31.78125 74.21875 
Q 42.671875 74.21875 48.875 69.140625 
Q 55.078125 64.0625 55.078125 55.328125 
Q 55.078125 49.078125 51.53125 44.71875 
Q 48 40.375 41.703125 38.8125 
Q 48.828125 37.15625 52.796875 32.3125 
Q 56.78125 27.484375 56.78125 20.515625 
Q 56.78125 9.90625 50.3125 4.234375 
Q 43.84375 -1.421875 31.78125 -1.421875 
Q 19.734375 -1.421875 13.25 4.234375 
Q 6.78125 9.90625 6.78125 20.515625 
Q 6.78125 27.484375 10.78125 32.3125 
Q 14.796875 37.15625 21.921875 38.8125 
M 18.3125 54.390625 
Q 18.3125 48.734375 21.84375 45.5625 
Q 25.390625 42.390625 31.78125 42.390625 
Q 38.140625 42.390625 41.71875 45.5625 
Q 45.3125 48.734375 45.3125 54.390625 
Q 45.3125 60.0625 41.71875 63.234375 
Q 38.140625 66.40625 31.78125 66.40625 
Q 25.390625 66.40625 21.84375 63.234375 
Q 18.3125 60.0625 18.3125 54.390625 
" id="BitstreamVeraSans-Roman-38"/>
      </defs>
      <g transform="translate(256.8875 263.5984375)scale(0.1 -0.1)">
       <use xlink:href="#BitstreamVeraSans-Roman-38"/>
       <use x="63.623046875" xlink:href="#BitstreamVeraSans-Roman-30"/>
      </g>
     </g>
    </g>
    <g id="xtick_7">
     <g id="line2d_13">
      <g>
       <use style="stroke:#000000;stroke-width:0.5;" x="305.1" xlink:href="#ma23d80fd33" y="252.0"/>
      </g>
     </g>
     <g id="line2d_14">
      <g>
       <use style="stroke:#000000;stroke-width:0.5;" x="305.1" xlink:href="#m068326265e" y="28.8"/>
      </g>
     </g>
     <g id="text_7">
      <!-- 100 -->
      <defs>
       <path d="M 12.40625 8.296875 
L 28.515625 8.296875 
L 28.515625 63.921875 
L 10.984375 60.40625 
L 10.984375 69.390625 
L 28.421875 72.90625 
L 38.28125 72.90625 
L 38.28125 8.296875 
L 54.390625 8.296875 
L 54.390625 0 
L 12.40625 0 
z
" id="BitstreamVeraSans-Roman-31"/>
      </defs>
      <g transform="translate(295.55625 263.5984375)scale(0.1 -0.1)">
       <use xlink:href="#BitstreamVeraSans-Roman-31"/>
       <use x="63.623046875" xlink:href="#BitstreamVeraSans-Roman-30"/>
       <use x="127.24609375" xlink:href="#BitstreamVeraSans-Roman-30"/>
      </g>
     </g>
    </g>
    <g id="xtick_8">
     <g id="line2d_15">
      <g>
       <use style="stroke:#000000;stroke-width:0.5;" x="346.95" xlink:href="#ma23d80fd33" y="252.0"/>
      </g>
     </g>
     <g id="line2d_16">
      <g>
       <use style="stroke:#000000;stroke-width:0.5;" x="346.95" xlink:href="#m068326265e" y="28.8"/>
      </g>
     </g>
     <g id="text_8">
      <!-- 120 -->
      <g transform="translate(337.40625 263.5984375)scale(0.1 -0.1)">
       <use xlink:href="#BitstreamVeraSans-Roman-31"/>
       <use x="63.623046875" xlink:href="#BitstreamVeraSans-Roman-32"/>
       <use x="127.24609375" xlink:href="#BitstreamVeraSans-Roman-30"/>
      </g>
     </g>
    </g>
    <g id="xtick_9">
     <g id="line2d_17">
      <g>
       <use style="stroke:#000000;stroke-width:0.5;" x="388.8" xlink:href="#ma23d80fd33" y="252.0"/>
      </g>
     </g>
     <g id="line2d_18">
      <g>
       <use style="stroke:#000000;stroke-width:0.5;" x="388.8" xlink:href="#m068326265e" y="28.8"/>
      </g>
     </g>
     <g id="text_9">
      <!-- 140 -->
      <g transform="translate(379.25625 263.5984375)scale(0.1 -0.1)">
       <use xlink:href="#BitstreamVeraSans-Roman-31"/>
       <use x="63.623046875" xlink:href="#BitstreamVeraSans-Roman-34"/>
       <use x="127.24609375" xlink:href="#BitstreamVeraSans-Roman-30"/>
      </g>
     </g>
    </g>
    <g id="text_10">
     <!-- Duplications per strain -->
     <defs>
      <path d="M 41.109375 46.296875 
Q 39.59375 47.171875 37.8125 47.578125 
Q 36.03125 48 33.890625 48 
Q 26.265625 48 22.1875 43.046875 
Q 18.109375 38.09375 18.109375 28.8125 
L 18.109375 0 
L 9.078125 0 
L 9.078125 54.6875 
L 18.109375 54.6875 
L 18.109375 46.1875 
Q 20.953125 51.171875 25.484375 53.578125 
Q 30.03125 56 36.53125 56 
Q 37.453125 56 38.578125 55.875 
Q 39.703125 55.765625 41.0625 55.515625 
z
" id="BitstreamVeraSans-Roman-72"/>
      <path id="BitstreamVeraSans-Roman-20"/>
      <path d="M 18.109375 8.203125 
L 18.109375 -20.796875 
L 9.078125 -20.796875 
L 9.078125 54.6875 
L 18.109375 54.6875 
L 18.109375 46.390625 
Q 20.953125 51.265625 25.265625 53.625 
Q 29.59375 56 35.59375 56 
Q 45.5625 56 51.78125 48.09375 
Q 58.015625 40.1875 58.015625 27.296875 
Q 58.015625 14.40625 51.78125 6.484375 
Q 45.5625 -1.421875 35.59375 -1.421875 
Q 29.59375 -1.421875 25.265625 0.953125 
Q 20.953125 3.328125 18.109375 8.203125 
M 48.6875 27.296875 
Q 48.6875 37.203125 44.609375 42.84375 
Q 40.53125 48.484375 33.40625 48.484375 
Q 26.265625 48.484375 22.1875 42.84375 
Q 18.109375 37.203125 18.109375 27.296875 
Q 18.109375 17.390625 22.1875 11.75 
Q 26.265625 6.109375 33.40625 6.109375 
Q 40.53125 6.109375 44.609375 11.75 
Q 48.6875 17.390625 48.6875 27.296875 
" id="BitstreamVeraSans-Roman-70"/>
      <path d="M 56.203125 29.59375 
L 56.203125 25.203125 
L 14.890625 25.203125 
Q 15.484375 15.921875 20.484375 11.0625 
Q 25.484375 6.203125 34.421875 6.203125 
Q 39.59375 6.203125 44.453125 7.46875 
Q 49.3125 8.734375 54.109375 11.28125 
L 54.109375 2.78125 
Q 49.265625 0.734375 44.1875 -0.34375 
Q 39.109375 -1.421875 33.890625 -1.421875 
Q 20.796875 -1.421875 13.15625 6.1875 
Q 5.515625 13.8125 5.515625 26.8125 
Q 5.515625 40.234375 12.765625 48.109375 
Q 20.015625 56 32.328125 56 
Q 43.359375 56 49.78125 48.890625 
Q 56.203125 41.796875 56.203125 29.59375 
M 47.21875 32.234375 
Q 47.125 39.59375 43.09375 43.984375 
Q 39.0625 48.390625 32.421875 48.390625 
Q 24.90625 48.390625 20.390625 44.140625 
Q 15.875 39.890625 15.1875 32.171875 
z
" id="BitstreamVeraSans-Roman-65"/>
      <path d="M 19.671875 64.796875 
L 19.671875 8.109375 
L 31.59375 8.109375 
Q 46.6875 8.109375 53.6875 14.9375 
Q 60.6875 21.78125 60.6875 36.53125 
Q 60.6875 51.171875 53.6875 57.984375 
Q 46.6875 64.796875 31.59375 64.796875 
z
M 9.8125 72.90625 
L 30.078125 72.90625 
Q 51.265625 72.90625 61.171875 64.09375 
Q 71.09375 55.28125 71.09375 36.53125 
Q 71.09375 17.671875 61.125 8.828125 
Q 51.171875 0 30.078125 0 
L 9.8125 0 
z
" id="BitstreamVeraSans-Roman-44"/>
      <path d="M 18.3125 70.21875 
L 18.3125 54.6875 
L 36.8125 54.6875 
L 36.8125 47.703125 
L 18.3125 47.703125 
L 18.3125 18.015625 
Q 18.3125 11.328125 20.140625 9.421875 
Q 21.96875 7.515625 27.59375 7.515625 
L 36.8125 7.515625 
L 36.8125 0 
L 27.59375 0 
Q 17.1875 0 13.234375 3.875 
Q 9.28125 7.765625 9.28125 18.015625 
L 9.28125 47.703125 
L 2.6875 47.703125 
L 2.6875 54.6875 
L 9.28125 54.6875 
L 9.28125 70.21875 
z
" id="BitstreamVeraSans-Roman-74"/>
      <path d="M 34.28125 27.484375 
Q 23.390625 27.484375 19.1875 25 
Q 14.984375 22.515625 14.984375 16.5 
Q 14.984375 11.71875 18.140625 8.90625 
Q 21.296875 6.109375 26.703125 6.109375 
Q 34.1875 6.109375 38.703125 11.40625 
Q 43.21875 16.703125 43.21875 25.484375 
L 43.21875 27.484375 
z
M 52.203125 31.203125 
L 52.203125 0 
L 43.21875 0 
L 43.21875 8.296875 
Q 40.140625 3.328125 35.546875 0.953125 
Q 30.953125 -1.421875 24.3125 -1.421875 
Q 15.921875 -1.421875 10.953125 3.296875 
Q 6 8.015625 6 15.921875 
Q 6 25.140625 12.171875 29.828125 
Q 18.359375 34.515625 30.609375 34.515625 
L 43.21875 34.515625 
L 43.21875 35.40625 
Q 43.21875 41.609375 39.140625 45 
Q 35.0625 48.390625 27.6875 48.390625 
Q 23 48.390625 18.546875 47.265625 
Q 14.109375 46.140625 10.015625 43.890625 
L 10.015625 52.203125 
Q 14.9375 54.109375 19.578125 55.046875 
Q 24.21875 56 28.609375 56 
Q 40.484375 56 46.34375 49.84375 
Q 52.203125 43.703125 52.203125 31.203125 
" id="BitstreamVeraSans-Roman-61"/>
      <path d="M 54.890625 33.015625 
L 54.890625 0 
L 45.90625 0 
L 45.90625 32.71875 
Q 45.90625 40.484375 42.875 44.328125 
Q 39.84375 48.1875 33.796875 48.1875 
Q 26.515625 48.1875 22.3125 43.546875 
Q 18.109375 38.921875 18.109375 30.90625 
L 18.109375 0 
L 9.078125 0 
L 9.078125 54.6875 
L 18.109375 54.6875 
L 18.109375 46.1875 
Q 21.34375 51.125 25.703125 53.5625 
Q 30.078125 56 35.796875 56 
Q 45.21875 56 50.046875 50.171875 
Q 54.890625 44.34375 54.890625 33.015625 
" id="BitstreamVeraSans-Roman-6e"/>
      <path d="M 9.421875 75.984375 
L 18.40625 75.984375 
L 18.40625 0 
L 9.421875 0 
z
" id="BitstreamVeraSans-Roman-6c"/>
      <path d="M 9.421875 54.6875 
L 18.40625 54.6875 
L 18.40625 0 
L 9.421875 0 
z
M 9.421875 75.984375 
L 18.40625 75.984375 
L 18.40625 64.59375 
L 9.421875 64.59375 
z
" id="BitstreamVeraSans-Roman-69"/>
      <path d="M 44.28125 53.078125 
L 44.28125 44.578125 
Q 40.484375 46.53125 36.375 47.5 
Q 32.28125 48.484375 27.875 48.484375 
Q 21.1875 48.484375 17.84375 46.4375 
Q 14.5 44.390625 14.5 40.28125 
Q 14.5 37.15625 16.890625 35.375 
Q 19.28125 33.59375 26.515625 31.984375 
L 29.59375 31.296875 
Q 39.15625 29.25 43.1875 25.515625 
Q 47.21875 21.78125 47.21875 15.09375 
Q 47.21875 7.46875 41.1875 3.015625 
Q 35.15625 -1.421875 24.609375 -1.421875 
Q 20.21875 -1.421875 15.453125 -0.5625 
Q 10.6875 0.296875 5.421875 2 
L 5.421875 11.28125 
Q 10.40625 8.6875 15.234375 7.390625 
Q 20.0625 6.109375 24.8125 6.109375 
Q 31.15625 6.109375 34.5625 8.28125 
Q 37.984375 10.453125 37.984375 14.40625 
Q 37.984375 18.0625 35.515625 20.015625 
Q 33.0625 21.96875 24.703125 23.78125 
L 21.578125 24.515625 
Q 13.234375 26.265625 9.515625 29.90625 
Q 5.8125 33.546875 5.8125 39.890625 
Q 5.8125 47.609375 11.28125 51.796875 
Q 16.75 56 26.8125 56 
Q 31.78125 56 36.171875 55.265625 
Q 40.578125 54.546875 44.28125 53.078125 
" id="BitstreamVeraSans-Roman-73"/>
      <path d="M 8.5 21.578125 
L 8.5 54.6875 
L 17.484375 54.6875 
L 17.484375 21.921875 
Q 17.484375 14.15625 20.5 10.265625 
Q 23.53125 6.390625 29.59375 6.390625 
Q 36.859375 6.390625 41.078125 11.03125 
Q 45.3125 15.671875 45.3125 23.6875 
L 45.3125 54.6875 
L 54.296875 54.6875 
L 54.296875 0 
L 45.3125 0 
L 45.3125 8.40625 
Q 42.046875 3.421875 37.71875 1 
Q 33.40625 -1.421875 27.6875 -1.421875 
Q 18.265625 -1.421875 13.375 4.4375 
Q 8.5 10.296875 8.5 21.578125 
" id="BitstreamVeraSans-Roman-75"/>
      <path d="M 48.78125 52.59375 
L 48.78125 44.1875 
Q 44.96875 46.296875 41.140625 47.34375 
Q 37.3125 48.390625 33.40625 48.390625 
Q 24.65625 48.390625 19.8125 42.84375 
Q 14.984375 37.3125 14.984375 27.296875 
Q 14.984375 17.28125 19.8125 11.734375 
Q 24.65625 6.203125 33.40625 6.203125 
Q 37.3125 6.203125 41.140625 7.25 
Q 44.96875 8.296875 48.78125 10.40625 
L 48.78125 2.09375 
Q 45.015625 0.34375 40.984375 -0.53125 
Q 36.96875 -1.421875 32.421875 -1.421875 
Q 20.0625 -1.421875 12.78125 6.34375 
Q 5.515625 14.109375 5.515625 27.296875 
Q 5.515625 40.671875 12.859375 48.328125 
Q 20.21875 56 33.015625 56 
Q 37.15625 56 41.109375 55.140625 
Q 45.0625 54.296875 48.78125 52.59375 
" id="BitstreamVeraSans-Roman-63"/>
      <path d="M 30.609375 48.390625 
Q 23.390625 48.390625 19.1875 42.75 
Q 14.984375 37.109375 14.984375 27.296875 
Q 14.984375 17.484375 19.15625 11.84375 
Q 23.34375 6.203125 30.609375 6.203125 
Q 37.796875 6.203125 41.984375 11.859375 
Q 46.1875 17.53125 46.1875 27.296875 
Q 46.1875 37.015625 41.984375 42.703125 
Q 37.796875 48.390625 30.609375 48.390625 
M 30.609375 56 
Q 42.328125 56 49.015625 48.375 
Q 55.71875 40.765625 55.71875 27.296875 
Q 55.71875 13.875 49.015625 6.21875 
Q 42.328125 -1.421875 30.609375 -1.421875 
Q 18.84375 -1.421875 12.171875 6.21875 
Q 5.515625 13.875 5.515625 27.296875 
Q 5.515625 40.765625 12.171875 48.375 
Q 18.84375 56 30.609375 56 
" id="BitstreamVeraSans-Roman-6f"/>
     </defs>
     <g transform="translate(153.3684375 279.79625)scale(0.12 -0.12)">
      <use xlink:href="#BitstreamVeraSans-Roman-44"/>
      <use x="77.001953125" xlink:href="#BitstreamVeraSans-Roman-75"/>
      <use x="140.380859375" xlink:href="#BitstreamVeraSans-Roman-70"/>
      <use x="203.857421875" xlink:href="#BitstreamVeraSans-Roman-6c"/>
      <use x="231.640625" xlink:href="#BitstreamVeraSans-Roman-69"/>
      <use x="259.423828125" xlink:href="#BitstreamVeraSans-Roman-63"/>
      <use x="314.404296875" xlink:href="#BitstreamVeraSans-Roman-61"/>
      <use x="375.68359375" xlink:href="#BitstreamVeraSans-Roman-74"/>
      <use x="414.892578125" xlink:href="#BitstreamVeraSans-Roman-69"/>
      <use x="442.67578125" xlink:href="#BitstreamVeraSans-Roman-6f"/>
      <use x="503.857421875" xlink:href="#BitstreamVeraSans-Roman-6e"/>
      <use x="567.236328125" xlink:href="#BitstreamVeraSans-Roman-73"/>
      <use x="619.3359375" xlink:href="#BitstreamVeraSans-Roman-20"/>
      <use x="651.123046875" xlink:href="#BitstreamVeraSans-Roman-70"/>
      <use x="714.599609375" xlink:href="#BitstreamVeraSans-Roman-65"/>
      <use x="776.123046875" xlink:href="#BitstreamVeraSans-Roman-72"/>
      <use x="817.236328125" xlink:href="#BitstreamVeraSans-Roman-20"/>
      <use x="849.0234375" xlink:href="#BitstreamVeraSans-Roman-73"/>
      <use x="901.123046875" xlink:href="#BitstreamVeraSans-Roman-74"/>
      <use x="940.33203125" xlink:href="#BitstreamVeraSans-Roman-72"/>
      <use x="981.4453125" xlink:href="#BitstreamVeraSans-Roman-61"/>
      <use x="1042.724609375" xlink:href="#BitstreamVeraSans-Roman-69"/>
      <use x="1070.5078125" xlink:href="#BitstreamVeraSans-Roman-6e"/>
     </g>
    </g>
   </g>
   <g id="matplotlib.axis_2">
    <g id="ytick_1">
     <g id="line2d_19">
      <defs>
       <path d="M 0 0 
L 4 0 
" id="m7c9ed8fee5" style="stroke:#000000;stroke-width:0.5;"/>
      </defs>
      <g>
       <use style="stroke:#000000;stroke-width:0.5;" x="54.0" xlink:href="#m7c9ed8fee5" y="252.0"/>
      </g>
     </g>
     <g id="line2d_20">
      <defs>
       <path d="M 0 0 
L -4 0 
" id="m5cf6c8d86a" style="stroke:#000000;stroke-width:0.5;"/>
      </defs>
      <g>
       <use style="stroke:#000000;stroke-width:0.5;" x="388.8" xlink:href="#m5cf6c8d86a" y="252.0"/>
      </g>
     </g>
     <g id="text_11">
      <!-- 0 -->
      <g transform="translate(43.6375 254.759375)scale(0.1 -0.1)">
       <use xlink:href="#BitstreamVeraSans-Roman-30"/>
      </g>
     </g>
    </g>
    <g id="ytick_2">
     <g id="line2d_21">
      <g>
       <use style="stroke:#000000;stroke-width:0.5;" x="54.0" xlink:href="#m7c9ed8fee5" y="220.114285714"/>
      </g>
     </g>
     <g id="line2d_22">
      <g>
       <use style="stroke:#000000;stroke-width:0.5;" x="388.8" xlink:href="#m5cf6c8d86a" y="220.114285714"/>
      </g>
     </g>
     <g id="text_12">
      <!-- 20 -->
      <g transform="translate(37.275 222.873660714)scale(0.1 -0.1)">
       <use xlink:href="#BitstreamVeraSans-Roman-32"/>
       <use x="63.623046875" xlink:href="#BitstreamVeraSans-Roman-30"/>
      </g>
     </g>
    </g>
    <g id="ytick_3">
     <g id="line2d_23">
      <g>
       <use style="stroke:#000000;stroke-width:0.5;" x="54.0" xlink:href="#m7c9ed8fee5" y="188.228571429"/>
      </g>
     </g>
     <g id="line2d_24">
      <g>
       <use style="stroke:#000000;stroke-width:0.5;" x="388.8" xlink:href="#m5cf6c8d86a" y="188.228571429"/>
      </g>
     </g>
     <g id="text_13">
      <!-- 40 -->
      <g transform="translate(37.275 190.987946429)scale(0.1 -0.1)">
       <use xlink:href="#BitstreamVeraSans-Roman-34"/>
       <use x="63.623046875" xlink:href="#BitstreamVeraSans-Roman-30"/>
      </g>
     </g>
    </g>
    <g id="ytick_4">
     <g id="line2d_25">
      <g>
       <use style="stroke:#000000;stroke-width:0.5;" x="54.0" xlink:href="#m7c9ed8fee5" y="156.342857143"/>
      </g>
     </g>
     <g id="line2d_26">
      <g>
       <use style="stroke:#000000;stroke-width:0.5;" x="388.8" xlink:href="#m5cf6c8d86a" y="156.342857143"/>
      </g>
     </g>
     <g id="text_14">
      <!-- 60 -->
      <g transform="translate(37.275 159.102232143)scale(0.1 -0.1)">
       <use xlink:href="#BitstreamVeraSans-Roman-36"/>
       <use x="63.623046875" xlink:href="#BitstreamVeraSans-Roman-30"/>
      </g>
     </g>
    </g>
    <g id="ytick_5">
     <g id="line2d_27">
      <g>
       <use style="stroke:#000000;stroke-width:0.5;" x="54.0" xlink:href="#m7c9ed8fee5" y="124.457142857"/>
      </g>
     </g>
     <g id="line2d_28">
      <g>
       <use style="stroke:#000000;stroke-width:0.5;" x="388.8" xlink:href="#m5cf6c8d86a" y="124.457142857"/>
      </g>
     </g>
     <g id="text_15">
      <!-- 80 -->
      <g transform="translate(37.275 127.216517857)scale(0.1 -0.1)">
       <use xlink:href="#BitstreamVeraSans-Roman-38"/>
       <use x="63.623046875" xlink:href="#BitstreamVeraSans-Roman-30"/>
      </g>
     </g>
    </g>
    <g id="ytick_6">
     <g id="line2d_29">
      <g>
       <use style="stroke:#000000;stroke-width:0.5;" x="54.0" xlink:href="#m7c9ed8fee5" y="92.5714285714"/>
      </g>
     </g>
     <g id="line2d_30">
      <g>
       <use style="stroke:#000000;stroke-width:0.5;" x="388.8" xlink:href="#m5cf6c8d86a" y="92.5714285714"/>
      </g>
     </g>
     <g id="text_16">
      <!-- 100 -->
      <g transform="translate(30.9125 95.3308035714)scale(0.1 -0.1)">
       <use xlink:href="#BitstreamVeraSans-Roman-31"/>
       <use x="63.623046875" xlink:href="#BitstreamVeraSans-Roman-30"/>
       <use x="127.24609375" xlink:href="#BitstreamVeraSans-Roman-30"/>
      </g>
     </g>
    </g>
    <g id="ytick_7">
     <g id="line2d_31">
      <g>
       <use style="stroke:#000000;stroke-width:0.5;" x="54.0" xlink:href="#m7c9ed8fee5" y="60.6857142857"/>
      </g>
     </g>
     <g id="line2d_32">
      <g>
       <use style="stroke:#000000;stroke-width:0.5;" x="388.8" xlink:href="#m5cf6c8d86a" y="60.6857142857"/>
      </g>
     </g>
     <g id="text_17">
      <!-- 120 -->
      <g transform="translate(30.9125 63.4450892857)scale(0.1 -0.1)">
       <use xlink:href="#BitstreamVeraSans-Roman-31"/>
       <use x="63.623046875" xlink:href="#BitstreamVeraSans-Roman-32"/>
       <use x="127.24609375" xlink:href="#BitstreamVeraSans-Roman-30"/>
      </g>
     </g>
    </g>
    <g id="ytick_8">
     <g id="line2d_33">
      <g>
       <use style="stroke:#000000;stroke-width:0.5;" x="54.0" xlink:href="#m7c9ed8fee5" y="28.8"/>
      </g>
     </g>
     <g id="line2d_34">
      <g>
       <use style="stroke:#000000;stroke-width:0.5;" x="388.8" xlink:href="#m5cf6c8d86a" y="28.8"/>
      </g>
     </g>
     <g id="text_18">
      <!-- 140 -->
      <g transform="translate(30.9125 31.559375)scale(0.1 -0.1)">
       <use xlink:href="#BitstreamVeraSans-Roman-31"/>
       <use x="63.623046875" xlink:href="#BitstreamVeraSans-Roman-34"/>
       <use x="127.24609375" xlink:href="#BitstreamVeraSans-Roman-30"/>
      </g>
     </g>
    </g>
    <g id="text_19">
     <!-- Count -->
     <defs>
      <path d="M 64.40625 67.28125 
L 64.40625 56.890625 
Q 59.421875 61.53125 53.78125 63.8125 
Q 48.140625 66.109375 41.796875 66.109375 
Q 29.296875 66.109375 22.65625 58.46875 
Q 16.015625 50.828125 16.015625 36.375 
Q 16.015625 21.96875 22.65625 14.328125 
Q 29.296875 6.6875 41.796875 6.6875 
Q 48.140625 6.6875 53.78125 8.984375 
Q 59.421875 11.28125 64.40625 15.921875 
L 64.40625 5.609375 
Q 59.234375 2.09375 53.4375 0.328125 
Q 47.65625 -1.421875 41.21875 -1.421875 
Q 24.65625 -1.421875 15.125 8.703125 
Q 5.609375 18.84375 5.609375 36.375 
Q 5.609375 53.953125 15.125 64.078125 
Q 24.65625 74.21875 41.21875 74.21875 
Q 47.75 74.21875 53.53125 72.484375 
Q 59.328125 70.75 64.40625 67.28125 
" id="BitstreamVeraSans-Roman-43"/>
     </defs>
     <g transform="translate(23.416875 158.218125)rotate(-90.0)scale(0.12 -0.12)">
      <use xlink:href="#BitstreamVeraSans-Roman-43"/>
      <use x="69.82421875" xlink:href="#BitstreamVeraSans-Roman-6f"/>
      <use x="131.005859375" xlink:href="#BitstreamVeraSans-Roman-75"/>
      <use x="194.384765625" xlink:href="#BitstreamVeraSans-Roman-6e"/>
      <use x="257.763671875" xlink:href="#BitstreamVeraSans-Roman-74"/>
     </g>
    </g>
   </g>
  </g>
 </g>
 <defs>
  <clipPath id="p4675471457">
   <rect height="223.2" width="334.8" x="54.0" y="28.8"/>
  </clipPath>
 </defs>
</svg>
